<?xml version="1.0" standalone="no"?>
<!DOCTYPE svg PUBLIC "-//W3C//DTD SVG 1.1//EN" "http://www.w3.org/Graphics/SVG/1.1/DTD/svg11.dtd" >
<svg xmlns="http://www.w3.org/2000/svg">
<metadata>Generated by IcoMoon</metadata>
<defs>
<font id="RegularLabsIcons" horiz-adv-x="512">
<font-face units-per-em="512" ascent="512" descent="0" />
<missing-glyph horiz-adv-x="512" />
<glyph unicode="&#x20;" horiz-adv-x="256" d="" />
<glyph unicode="&#xe001;" glyph-name="paragraph-left" d="M0 416h512v-32h-512zM0 352h352v-32h-352zM0 288h512v-32h-512zM0 224h352v-32h-352zM0 160h512v-32h-512zM0 96h352v-32h-352z" />
<glyph unicode="&#xe002;" glyph-name="paragraph-center" d="M0 416h512v-32h-512zM96 352h320v-32h-320zM96 224h320v-32h-320zM96 96h320v-32h-320zM0 288h512v-32h-512zM0 160h512v-32h-512z" />
<glyph unicode="&#xe003;" glyph-name="paragraph-right" d="M0 416h512v-32h-512zM160 352h352v-32h-352zM0 288h512v-32h-512zM160 224h352v-32h-352zM0 160h512v-32h-512zM160 96h352v-32h-352z" />
<glyph unicode="&#xe004;" glyph-name="paragraph-justify" d="M0 352h512v-32h-512zM0 224h512v-32h-512zM0 96h512v-32h-512zM0 416h512v-32h-512zM0 288h512v-32h-512zM0 160h512v-32h-512z" />
<glyph unicode="&#xe005;" glyph-name="undo" d="M380.931 0c56.863 103.016 66.444 260.153-156.931 254.912v-126.912l-192 192 192 192v-124.186c267.481 6.971 297.285-236.107 156.931-387.814z" />
<glyph unicode="&#xe006;" glyph-name="redo" d="M288 387.814v124.186l192-192-192-192v126.912c-223.375 5.241-213.794-151.896-156.93-254.912-140.356 151.707-110.55 394.785 156.93 387.814z" />
<glyph unicode="&#xe007;" glyph-name="spinner" d="M512 320h-192l71.765 71.765c-36.265 36.263-84.48 56.235-135.765 56.235s-99.5-19.972-135.765-56.235c-36.263-36.265-56.235-84.48-56.235-135.765s19.972-99.5 56.235-135.765c36.265-36.263 84.48-56.235 135.765-56.235s99.5 19.972 135.764 56.236c3.028 3.027 5.93 6.146 8.728 9.334l48.16-42.141c-46.923-53.583-115.832-87.429-192.652-87.429-141.385 0-256 114.615-256 256s114.615 256 256 256c70.693 0 134.684-28.663 181.008-74.992l74.992 74.992v-192z" />
<glyph unicode="&#xe008;" glyph-name="lock" d="M296 288h-8v96c0 52.935-43.065 96-96 96h-64c-52.935 0-96-43.065-96-96v-96h-8c-13.2 0-24-10.8-24-24v-240c0-13.2 10.8-24 24-24h272c13.2 0 24 10.8 24 24v240c0 13.2-10.8 24-24 24zM192 64h-64l13.92 69.6c-8.404 5.766-13.92 15.437-13.92 26.4 0 17.673 14.327 32 32 32s32-14.327 32-32c0-10.963-5.516-20.634-13.92-26.4l13.92-69.6zM224 288h-128v96c0 17.645 14.355 32 32 32h64c17.645 0 32-14.355 32-32v-96z" />
<glyph unicode="&#xe009;" glyph-name="unlocked" d="M384 480h-64c-52.935 0-96-43.065-96-96v-96h-200c-13.2 0-24-10.8-24-24v-240c0-13.2 10.8-24 24-24h272c13.2 0 24 10.8 24 24v240c0 13.2-10.8 24-24 24h-8v96c0 17.645 14.355 32 32 32h64c17.645 0 32-14.355 32-32v-96h64v96c0 52.935-43.065 96-96 96zM192 64h-64l13.92 69.6c-8.404 5.766-13.92 15.437-13.92 26.4 0 17.673 14.327 32 32 32s32-14.327 32-32c0-10.963-5.516-20.634-13.92-26.4l13.92-69.6z" />
<glyph unicode="&#xe00a;" glyph-name="cog" d="M512 207.953v96.094l-73.387 12.231c-2.979 9.066-6.611 17.834-10.847 26.25l43.227 60.517-67.948 67.949-60.413-43.152c-8.455 4.277-17.269 7.944-26.384 10.951l-12.201 73.207h-96.094l-12.201-73.208c-9.115-3.007-17.929-6.674-26.383-10.951l-60.414 43.152-67.949-67.949 43.227-60.518c-4.235-8.415-7.867-17.183-10.846-26.249l-73.387-12.23v-96.094l73.559-12.26c2.98-8.984 6.605-17.674 10.821-26.015l-43.374-60.724 67.949-67.948 60.827 43.447c8.301-4.175 16.945-7.764 25.882-10.717l12.289-73.736h96.094l12.289 73.737c8.937 2.953 17.581 6.542 25.883 10.716l60.826-43.446 67.948 67.948-43.372 60.723c4.216 8.341 7.839 17.031 10.82 26.016l73.559 12.259zM256 192c-35.346 0-64 28.653-64 64s28.654 64 64 64c35.347 0 64-28.654 64-64s-28.653-64-64-64z" />
<glyph unicode="&#xe00b;" glyph-name="arrow-up" d="M256.001 512l-256.001-256h160v-255.999l192-0.001v256h160z" />
<glyph unicode="&#xe00c;" glyph-name="arrow-right" d="M512 256l-256 256v-160h-255.999l-0.001-192h256v-160z" />
<glyph unicode="&#xe00d;" glyph-name="arrow-down" d="M256 0l256 256h-160v255.999l-192 0.001v-256h-160z" />
<glyph unicode="&#xe00e;" glyph-name="arrow-left" d="M0 256l256-256v160h255.999l0.001 192h-256v160z" />
<glyph unicode="&#xe00f;" glyph-name="top" d="M480 512h-448c-17.6 0-32-14.399-32-32v-448c0-17.601 14.398-32 32-32h448c17.6 0 32 14.399 32 32v448c0 17.601-14.4 32-32 32zM480 32h-448v384h448v-384z" />
<glyph unicode="&#xe010;" glyph-name="bottom" d="M480 512h-448c-17.6 0-32-14.399-32-32v-448c0-17.601 14.398-32 32-32h448c17.6 0 32 14.399 32 32v448c0 17.601-14.4 32-32 32zM480 128h-448v352h448v-352z" />
<glyph unicode="&#xe011;" glyph-name="simple" d="M256 0c141.385 0 256 114.615 256 256s-114.615 256-256 256-256-114.615-256-256 114.615-256 256-256zM256 464c114.875 0 208-93.125 208-208s-93.125-208-208-208-208 93.125-208 208 93.125 208 208 208zM400 384c8.8 0 16-7.2 16-16v-48c0-17.6-14.4-32-32-32h-64c-17.6 0-32 14.4-32 32h-64c0-17.6-14.4-32-32-32h-64c-17.6 0-32 14.4-32 32v48c0 8.8 7.2 16 16 16h96c8.8 0 16-7.2 16-16v-16h64v16c0 8.8 7.2 16 16 16h96zM256 128c46.604 0 87.386 24.909 109.773 62.139l27.44-16.467c-27.983-46.535-78.958-77.672-137.213-77.672-24.229 0-47.192 5.398-67.77 15.041l16.581 27.639c15.677-6.857 32.982-10.68 51.189-10.68z" />
<glyph unicode="&#xe012;" glyph-name="normal" d="M256 0c141.385 0 256 114.615 256 256s-114.615 256-256 256-256-114.615-256-256 114.615-256 256-256zM256 464c114.875 0 208-93.125 208-208s-93.125-208-208-208-208 93.125-208 208 93.125 208 208 208zM128 352c0 17.673 14.327 32 32 32s32-14.327 32-32c0-17.673-14.327-32-32-32s-32 14.327-32 32zM320 352c0 17.673 14.327 32 32 32s32-14.327 32-32c0-17.673-14.327-32-32-32s-32 14.327-32 32zM352.049 198.37l41.164-24.698c-27.981-46.535-78.958-77.672-137.213-77.672s-109.232 31.137-137.213 77.672l41.164 24.698c19.587-32.574 55.271-54.37 96.049-54.37s76.462 21.796 96.049 54.37z" />
<glyph unicode="&#xe013;" glyph-name="advanced" d="M256 0c141.385 0 256 114.615 256 256s-114.615 256-256 256-256-114.615-256-256 114.615-256 256-256zM256 464c114.875 0 208-93.125 208-208s-93.125-208-208-208-208 93.125-208 208 93.125 208 208 208zM192 160c0 35.346 28.654 64 64 64s64-28.654 64-64c0-35.346-28.654-64-64-64s-64 28.654-64 64zM320 336c0-26.51 14.327-48 32-48s32 21.49 32 48c0 26.51-14.327 48-32 48s-32-21.49-32-48zM128 336c0-26.51 14.327-48 32-48s32 21.49 32 48c0 26.51-14.327 48-32 48s-32-21.49-32-48z" />
<glyph unicode="&#xe014;" glyph-name="home" d="M512 216.777l-256 198.714-256-198.714v81.019l256 198.713 256-198.714zM448 224v-192h-384v192l192 144z" />
<glyph unicode="&#xe015;" glyph-name="info" d="M256 512c-141.385 0-256-114.615-256-256s114.615-256 256-256 256 114.615 256 256-114.615 256-256 256zM224 416h64v-64h-64v64zM320 96h-128v32h32v128h-32v32h96v-160h32v-32z" />
<glyph unicode="&#xe016;" glyph-name="warning" d="M505.216 92.624l-191.984 384c-10.832 21.68-32.976 35.376-57.232 35.376s-46.4-13.696-57.232-35.376l-191.984-384c-9.92-19.84-8.864-43.408 2.8-62.288 11.664-18.848 32.256-30.336 54.432-30.336h383.952c22.192 0 42.784 11.488 54.432 30.336 11.664 18.88 12.72 42.448 2.816 62.288zM287.968 80c0-8.848-7.152-16-16-16h-32c-8.848 0-16 7.152-16 16v32c0 8.848 7.152 16 16 16h32c8.848 0 16-7.152 16-16v-32zM287.968 208c0-8.848-7.152-16-16-16h-32c-8.848 0-16 7.152-16 16v160c0 8.832 7.152 16 16 16h32c8.848 0 16-7.168 16-16v-160z" />
<glyph unicode="&#xe017;" glyph-name="not-ok" d="M256 512c-141.376 0-256-114.624-256-256s114.624-256 256-256 256 114.624 256 256-114.624 256-256 256zM384 224h-256v64h256v-64z" />
<glyph unicode="&#xe018;" glyph-name="link" d="M476.698 474.679l-2.014 2.021c-47.074 47.067-124.097 47.067-171.163 0l-109.053-109.068c-47.067-47.066-47.067-124.088 0-171.155l2.013-2.013c3.916-3.924 8.073-7.462 12.368-10.729l39.924 39.925c-4.651 2.747-9.063 6.036-13.058 10.030l-2.021 2.021c-25.557 25.549-25.557 67.136 0 92.695l109.064 109.056c25.558 25.559 67.137 25.559 92.693 0l2.021-2.012c25.55-25.558 25.55-67.146 0-92.695l-49.343-49.343c8.566-21.154 12.624-43.7 12.269-66.193l76.302 76.302c47.067 47.068 47.067 124.089-0.002 171.158zM315.521 317.533c-3.916 3.916-8.073 7.461-12.368 10.72l-39.924-39.916c4.652-2.748 9.063-6.037 13.058-10.031l2.021-2.020c25.558-25.558 25.558-67.136 0-92.694l-109.065-109.067c-25.559-25.551-67.138-25.551-92.694 0l-2.021 2.021c-25.549 25.56-25.549 67.138 0 92.694l49.344 49.343c-8.567 21.153-12.623 43.701-12.269 66.193l-76.301-76.299c-47.068-47.066-47.068-124.089 0-171.162l2.013-2.016c47.076-47.064 124.096-47.064 171.164 0l109.055 109.059c47.067 47.066 47.067 124.097 0 171.163l-2.013 2.012z" />
<glyph unicode="&#xe019;" glyph-name="eye" d="M256 416c-111.659 0-208.441-65.021-256-160 47.559-94.979 144.341-160 256-160 111.657 0 208.439 65.021 256 160-47.558 94.979-144.343 160-256 160zM382.225 331.148c30.081-19.187 55.571-44.887 74.717-75.148-19.146-30.261-44.637-55.961-74.718-75.149-37.797-24.108-81.445-36.851-126.224-36.851-44.78 0-88.428 12.743-126.225 36.852-30.080 19.186-55.57 44.886-74.717 75.148 19.146 30.262 44.637 55.962 74.717 75.148 1.959 1.25 3.938 2.461 5.929 3.65-4.979-13.664-7.704-28.411-7.704-43.798 0-70.692 57.308-128 128-128s128 57.308 128 128c0 15.387-2.725 30.134-7.704 43.799 1.99-1.189 3.969-2.401 5.929-3.651zM256 307c0-26.51-21.49-48-48-48s-48 21.49-48 48 21.49 48 48 48 48-21.49 48-48z" />
<glyph unicode="&#xe01a;" glyph-name="search" d="M496.131 76.302l-121.276 103.147c-12.537 11.283-25.945 16.463-36.776 15.963 28.628 33.534 45.921 77.039 45.921 124.588 0 106.039-85.961 192-192 192s-192-85.961-192-192c0-106.039 85.961-192 192-192 47.549 0 91.054 17.293 124.588 45.922-0.5-10.831 4.68-24.239 15.963-36.776l103.147-121.276c17.661-19.623 46.511-21.277 64.11-3.678s15.946 46.449-3.677 64.11zM192 192c-70.692 0-128 57.308-128 128s57.308 128 128 128 128-57.308 128-128-57.307-128-128-128z" />
<glyph unicode="&#xe01b;" glyph-name="src_sourcetags" d="M316.631 225.336c2.789-7.281 4.182-16.029 4.182-26.25 0-21.372-6.272-38.563-18.816-51.572s-30.897-19.515-55.056-19.515c-12.391 0-23.542 1.707-33.452 5.112-9.917 3.403-17.35 6.504-22.301 9.291l8.362 32.987c4.646-2.483 10.918-5.271 18.817-8.362 7.897-3.1 16.646-4.647 26.25-4.647 11.769 0 20.675 3.326 26.715 9.99 6.040 6.657 9.060 15.405 9.060 26.251 0 6.809-1.241 12.615-3.718 17.423-2.482 4.798-5.733 9.059-9.756 12.775-4.028 3.718-8.676 7.042-13.938 9.989-5.271 2.94-10.534 6.112-15.797 9.524-5.271 3.093-10.381 6.737-15.332 10.919-4.958 4.181-9.372 8.98-13.241 14.403-3.877 5.415-6.969 11.615-9.292 18.583-2.323 6.97-3.484 15.1-3.484 24.392 0 20.131 6.272 36.392 18.816 48.784 12.544 12.387 29.503 18.587 50.875 18.587 8.98 0 17.495-1.161 25.554-3.484 8.051-2.323 14.707-4.878 19.979-7.666l-8.828-32.058c-5.575 3.092-11.151 5.415-16.727 6.969-5.575 1.546-11.615 2.323-18.12 2.323-9.915 0-17.813-2.868-23.694-8.595-5.887-5.735-8.828-14.019-8.828-24.857 0-6.199 1.082-11.543 3.252-16.029 2.163-4.494 5.031-8.522 8.596-12.080 3.557-3.564 7.586-6.896 12.079-9.989 4.485-3.1 9.213-6.040 14.171-8.828 5.88-3.411 11.687-7.128 17.422-11.15 5.729-4.030 10.838-8.756 15.332-14.171 4.486-5.424 8.13-11.776 10.918-19.049zM86.622 279.502c9.379 21.103 9.379 47.23 9.379 72.498 0 21.929 0 59.722 6.621 74.62 4.505 10.136 12.944 20.498 41.379 20.498 8.836 0 16 7.163 16 16s-7.163 16-16 16c-18.292 0-33.032-3.411-45.063-10.43-11.321-6.604-19.92-16.385-25.558-29.073-9.379-21.103-9.379-62.348-9.379-87.616 0-21.928 0-44.604-6.621-59.502-4.505-10.135-12.945-20.497-41.379-20.497-8.837 0-16-7.163-16-16s7.163-15.999 16-15.999c28.435 0 36.874-10.363 41.379-20.5 6.621-14.896 6.621-37.572 6.621-59.501 0-25.268 0-67.392 9.379-88.495 5.638-12.688 14.238-22.468 25.559-29.072 12.031-7.019 26.771-10.43 45.063-10.43 8.836 0 16 7.163 16 16.001 0 8.835-7.163 15.999-16 15.999-28.435 0-36.875 10.362-41.379 20.499-6.621 14.896-6.621 53.568-6.621 75.498 0 25.268 0 51.396-9.379 72.497-4.225 9.504-10.108 17.373-17.552 23.503 7.444 6.128 13.327 14 17.551 23.502zM495.999 272c-28.435 0-36.874 10.362-41.379 20.498-6.621 14.898-6.621 37.574-6.621 59.502 0 25.268 0 66.513-9.378 87.616-5.639 12.688-14.238 22.468-25.56 29.072-12.031 7.019-26.771 10.43-45.062 10.43-8.837 0-16.001-7.163-16.001-16s7.164-16 16.001-16c28.435 0 36.873-10.362 41.379-20.498 6.622-14.898 6.622-52.691 6.622-74.62 0-25.268 0-51.395 9.379-72.498 4.223-9.502 10.105-17.374 17.55-23.501-7.444-6.13-13.327-14-17.55-23.503-9.379-21.102-9.379-47.23-9.379-72.498 0-21.93 0-60.602-6.621-75.498-4.506-10.137-12.944-20.499-41.379-20.499-8.837 0-16.001-7.164-16.001-15.999 0-8.838 7.164-16.001 16.001-16.001 18.291 0 33.030 3.411 45.062 10.43 11.321 6.604 19.921 16.385 25.56 29.072 9.378 21.104 9.378 63.228 9.378 88.495 0 21.929 0 44.604 6.621 59.501 4.505 10.137 12.944 20.5 41.379 20.5 8.837 0 16.001 7.162 16.001 15.999s-7.165 16-16.002 16z" />
<glyph unicode="&#xe01c;" glyph-name="src_nosourcetags" d="M316.631 225.336c2.789-7.281 4.182-16.029 4.182-26.25 0-21.372-6.272-38.563-18.816-51.572s-30.897-19.515-55.056-19.515c-12.391 0-23.542 1.707-33.452 5.112-9.917 3.403-17.35 6.504-22.301 9.291l8.362 32.987c4.646-2.483 10.918-5.271 18.817-8.362 7.897-3.1 16.646-4.647 26.25-4.647 11.769 0 20.675 3.326 26.715 9.99 6.040 6.657 9.060 15.405 9.060 26.251 0 6.809-1.241 12.615-3.718 17.423-2.482 4.798-5.733 9.059-9.756 12.775-4.028 3.718-8.676 7.042-13.938 9.989-5.271 2.94-10.534 6.112-15.797 9.524-5.271 3.093-10.381 6.737-15.332 10.919-4.958 4.181-9.372 8.98-13.241 14.403-3.877 5.415-6.969 11.615-9.292 18.583-2.323 6.97-3.484 15.1-3.484 24.392 0 20.131 6.272 36.392 18.816 48.784 12.544 12.387 29.503 18.587 50.875 18.587 8.98 0 17.495-1.161 25.554-3.484 8.051-2.323 14.707-4.878 19.979-7.666l-8.828-32.058c-5.575 3.092-11.151 5.415-16.727 6.969-5.575 1.546-11.615 2.323-18.12 2.323-9.915 0-17.813-2.868-23.694-8.595-5.887-5.735-8.828-14.019-8.828-24.857 0-6.199 1.082-11.543 3.252-16.029 2.163-4.494 5.031-8.522 8.596-12.080 3.557-3.564 7.586-6.896 12.079-9.989 4.485-3.1 9.213-6.040 14.171-8.828 5.88-3.411 11.687-7.128 17.422-11.15 5.729-4.030 10.838-8.756 15.332-14.171 4.486-5.424 8.13-11.776 10.918-19.049zM86.622 279.502c9.379 21.103 9.379 47.23 9.379 72.498 0 21.929 0 59.722 6.621 74.62 4.505 10.136 12.944 20.498 41.379 20.498 8.836 0 16 7.163 16 16s-7.163 16-16 16c-18.292 0-33.032-3.411-45.063-10.43-11.321-6.604-19.92-16.385-25.558-29.073-9.379-21.103-9.379-62.348-9.379-87.616 0-21.928 0-44.604-6.621-59.502-4.505-10.135-12.945-20.497-41.379-20.497-8.837 0-16-7.163-16-16s7.163-15.999 16-15.999c28.435 0 36.874-10.363 41.379-20.5 6.621-14.896 6.621-37.572 6.621-59.501 0-25.268 0-67.392 9.379-88.495 5.638-12.688 14.238-22.468 25.559-29.072 12.031-7.019 26.771-10.43 45.063-10.43 8.836 0 16 7.163 16 16.001 0 8.835-7.163 15.999-16 15.999-28.435 0-36.875 10.362-41.379 20.499-6.621 14.896-6.621 53.568-6.621 75.498 0 25.268 0 51.396-9.379 72.497-4.225 9.504-10.108 17.373-17.552 23.503 7.444 6.128 13.327 14 17.551 23.502zM495.999 272c-28.435 0-36.874 10.362-41.379 20.498-6.621 14.898-6.621 37.574-6.621 59.502 0 25.268 0 66.513-9.378 87.616-5.639 12.688-14.238 22.468-25.56 29.072-12.031 7.019-26.771 10.43-45.062 10.43-8.837 0-16.001-7.163-16.001-16s7.164-16 16.001-16c28.435 0 36.873-10.362 41.379-20.498 6.622-14.898 6.622-52.691 6.622-74.62 0-25.268 0-51.395 9.379-72.498 4.223-9.502 10.105-17.374 17.55-23.501-7.444-6.13-13.327-14-17.55-23.503-9.379-21.102-9.379-47.23-9.379-72.498 0-21.93 0-60.602-6.621-75.498-4.506-10.137-12.944-20.499-41.379-20.499-8.837 0-16.001-7.164-16.001-15.999 0-8.838 7.164-16.001 16.001-16.001 18.291 0 33.030 3.411 45.062 10.43 11.321 6.604 19.921 16.385 25.56 29.072 9.378 21.104 9.378 63.228 9.378 88.495 0 21.929 0 44.604 6.621 59.501 4.505 10.137 12.944 20.5 41.379 20.5 8.837 0 16.001 7.162 16.001 15.999s-7.165 16-16.002 16zM486.005 475.612c6.899 5.52 16.969 4.401 22.488-2.499 5.521-6.9 4.4-16.969-2.498-22.489l-480-415.115c-2.95-2.359-6.48-3.506-9.985-3.506-4.694 0-9.344 2.056-12.504 6.005-5.521 6.9-4.401 16.969 2.499 22.489" />
<glyph unicode="&#xe01d;" glyph-name="src_tagstyle" d="M157.72 422.885l-120.401-167.324 120.401-167.325c4.546-7.578 2.089-17.406-5.488-21.953-2.577-1.545-5.416-2.281-8.217-2.282-5.436 0-10.735 2.771-13.735 7.771l-130.28 183.789 130.28 183.789c4.547 7.578 14.375 10.034 21.952 5.488 7.578-4.547 10.035-14.375 5.488-21.953zM381.719 439.349c-4.546 7.577-14.374 10.035-21.951 5.488-7.578-4.546-10.034-14.375-5.488-21.952l120.402-167.325-120.402-167.324c-4.546-7.578-2.090-17.406 5.488-21.953 2.578-1.545 5.414-2.282 8.217-2.282 5.435 0 10.735 2.771 13.734 7.771l130.281 183.789-130.281 183.788zM307.88 478.639c-8.571 2.143-17.26-3.068-19.403-11.641l-95.999-415.115c-2.143-8.572 3.069-17.258 11.642-19.402 1.303-0.325 2.608-0.48 3.892-0.48 7.169 0 13.693 4.853 15.51 12.122l96 415.115c2.143 8.571-3.069 17.259-11.642 19.401z" />
<glyph unicode="&#xe01e;" glyph-name="src_tagstyle_brackets" d="M512 479.117v-447.114h-48.001c-8.837 0-16 7.163-16 16.001 0 8.835 7.163 15.999 16 15.999h16v383.114h-16c-8.837 0-16 7.163-16 16s7.163 16 16 16h48.001zM351.999 463.118c0-8.837 7.164-16 16.001-16h15.999v-383.114h-15.999c-8.837 0-16.001-7.164-16.001-15.999 0-8.838 7.164-16.001 16.001-16.001h48v447.113h-48c-8.837 0-16.001-7.163-16.001-15.999zM307.88 478.639c-8.571 2.143-17.26-3.068-19.403-11.641l-95.999-415.115c-2.143-8.572 3.069-17.258 11.642-19.402 1.303-0.325 2.608-0.48 3.892-0.48 7.169 0 13.693 4.853 15.51 12.122l96 415.115c2.143 8.571-3.069 17.259-11.642 19.401zM48.001 447.117c8.836 0 16 7.163 16 16 0 8.836-7.164 16-16 16h-48v-447.114h48c8.836 0 16 7.163 16 16.001 0 8.835-7.164 15.999-16 15.999h-16v383.114h16zM144.001 447.117c8.836 0 16 7.163 16 16 0 8.836-7.163 16-16 16h-48v-447.114h48c8.836 0 16 7.163 16 16.001 0 8.835-7.163 15.999-16 15.999h-16.001v383.114h16.001z" />
<glyph unicode="&#xe021;" glyph-name="bundle" d="M416 416v64h-320v-64h-96v-64c0-53.019 42.979-96 96-96 10.038 0 19.715 1.543 28.81 4.401 23.087-33.004 58.304-56.898 99.19-65.198v-99.203h-32c-35.347 0-64-28.653-64-64h256c0 35.347-28.653 64-64 64h-32v99.203c40.886 8.3 76.103 32.193 99.19 65.198 9.095-2.858 18.772-4.401 28.81-4.401 53.021 0 96 42.981 96 96v64h-96zM96 294c-31.981 0-58 26.019-58 58v32h58v-32c0-20.093 3.715-39.316 10.477-57.034-3.401-0.623-6.899-0.966-10.477-0.966zM474 352c0-31.981-26.019-58-58-58-3.578 0-7.076 0.343-10.477 0.966 6.762 17.718 10.477 36.941 10.477 57.034v32h58v-32z" />
<glyph unicode="&#xe022;" glyph-name="lifetime" d="M416 416v64h-320v-64h-96v-64c0-53.019 42.979-96 96-96 10.038 0 19.715 1.543 28.81 4.401 23.087-33.004 58.304-56.898 99.19-65.198v-99.203h-32c-35.347 0-64-28.653-64-64h256c0 35.347-28.653 64-64 64h-32v99.203c40.886 8.3 76.103 32.193 99.19 65.198 9.095-2.858 18.772-4.401 28.81-4.401 53.021 0 96 42.981 96 96v64h-96zM96 294c-31.981 0-58 26.019-58 58v32h58v-32c0-20.093 3.715-39.316 10.477-57.034-3.401-0.623-6.899-0.966-10.477-0.966zM304.707 326.403l30.51-93.208-79.217 57.821-79.216-57.821 30.509 93.208-79.468 57.472 98.072-0.214 30.103 93.339 30.104-93.339 98.071 0.214-79.468-57.472zM474 352c0-31.981-26.019-58-58-58-3.578 0-7.076 0.343-10.477 0.966 6.762 17.718 10.477 36.941 10.477 57.034v32h58v-32z" />
<glyph unicode="&#xe030;" glyph-name="twitter" d="M512 414.791c-18.838-8.354-39.082-14.001-60.33-16.54 21.686 13 38.343 33.585 46.186 58.115-20.298-12.039-42.778-20.78-66.705-25.49-19.16 20.415-46.461 33.17-76.673 33.17-58.011 0-105.044-47.029-105.044-105.039 0-8.233 0.929-16.25 2.72-23.939-87.3 4.382-164.701 46.2-216.509 109.753-9.042-15.514-14.223-33.558-14.223-52.809 0-36.444 18.544-68.596 46.73-87.433-17.219 0.546-33.416 5.271-47.577 13.139-0.010-0.438-0.010-0.878-0.010-1.321 0-50.894 36.209-93.348 84.261-103-8.813-2.4-18.094-3.686-27.674-3.686-6.769 0-13.349 0.66-19.764 1.886 13.368-41.73 52.16-72.103 98.126-72.948-35.95-28.175-81.243-44.967-130.458-44.967-8.479 0-16.84 0.497-25.058 1.47 46.486-29.805 101.701-47.197 161.021-47.197 193.211 0 298.868 160.062 298.868 298.872 0 4.554-0.103 9.084-0.305 13.59 20.528 14.81 38.336 33.31 52.418 54.374z" />
<glyph unicode="&#xe031;" glyph-name="google-plus" d="M162.9 283.3v-55.9h92.4c-3.7-24-27.9-70.3-92.4-70.3-55.6 0-101 46.1-101 102.9s45.4 102.9 101 102.9c31.7 0 52.8-13.5 64.9-25.1l44.2 42.6c-28.4 26.5-65.2 42.6-109.1 42.6-90.1-0.1-162.9-72.9-162.9-163s72.8-162.9 162.9-162.9c94 0 156.4 66.1 156.4 159.2 0 10.7-1.2 18.9-2.6 27h-153.8zM512 288h-48v48h-48v-48h-48v-48h48v-48h48v48h48z" />
<glyph unicode="&#xe032;" glyph-name="facebook" d="M304 416h80v96h-80c-61.757 0-112-50.243-112-112v-48h-64v-96h64v-256h96v256h80l16 96h-96v48c0 8.673 7.327 16 16 16z" />
<glyph unicode="&#xe033;" glyph-name="joomla" d="M133.002 373.661c16.416 16.422 43.001 16.422 59.402 0.016l3.913-3.934 50.552 50.578-3.937 3.94c-28.812 28.85-69.257 38.939-106.21 30.261-5.297 32.591-33.544 57.462-67.587 57.478-37.825 0-68.477-30.721-68.485-68.579 0-32.668 22.795-60 53.331-66.915-11.569-38.725-2.121-82.417 28.423-112.992l113.913-113.95 50.498 50.607-113.905 113.943c-16.341 16.361-16.371 43.063 0.092 59.547zM511.356 443.421c0.008 37.881-30.659 68.579-68.492 68.579-34.617 0-63.239-25.722-67.841-59.119-38.537 11.332-81.892 1.748-112.32-28.704l-113.92-113.95 50.551-50.586 113.883 113.928c16.47 16.483 42.994 16.453 59.342 0.092 16.4-16.415 16.4-43.057-0.016-59.478l-3.897-3.918 50.505-50.624 3.929 3.964c30.229 30.283 39.839 73.378 28.806 111.819 33.575 4.417 59.47 33.182 59.47 67.997zM453.133 136.468c9.051 37.229-0.988 78.162-30.054 107.25l-113.745 113.996-50.551-50.561 113.76-114.006c16.47-16.498 16.432-43.048 0.092-59.424-16.401-16.407-43.002-16.407-59.418 0.015l-3.883 3.895-50.497-50.623 3.866-3.864c30.758-30.797 74.809-40.219 113.684-28.244 6.316-31.341 33.967-54.902 67.129-54.902 37.802 0 68.484 30.675 68.484 68.563 0 34.6-25.59 63.228-58.867 67.905zM306.172 247.658l-113.768-113.996c-16.355-16.384-43.017-16.414-59.472 0.062-16.409 16.452-16.416 43.049-0.022 59.485l3.904 3.887-50.543 50.562-3.867-3.856c-29.38-29.401-39.28-70.917-29.725-108.491-30.199-7.13-52.679-34.317-52.679-66.748-0.008-37.873 30.666-68.563 68.491-68.563 32.55 0.016 59.794 22.709 66.77 53.191 37.351-9.276 78.499 0.652 107.672 29.878l113.745 113.98-50.506 50.609z" />
</font>
</defs>
</svg>
